ISO-10303-21;
HEADER;
FILE_DESCRIPTION (( 'STEP AP203' ),
    '1' );
FILE_NAME ('底座.STEP',
    '2026-06-04T07:08:30',
    ( '' ),
    ( '' ),
    'SwSTEP 2.0',
    'SolidWorks 2022',
    '' );
FILE_SCHEMA (( 'CONFIG_CONTROL_DESIGN' ));
ENDSEC;

DATA;
#1 = EDGE_LOOP ( 'NONE', ( #467, #47, #761, #765 ) ) ;
#2 = PLANE ( 'NONE',  #818 ) ;
#3 = EDGE_CURVE ( 'NONE', #687, #405, #264, .T. ) ;
#4 = DIRECTION ( 'NONE',  ( 0.000000000000000000, 0.000000000000000000, -1.000000000000000000 ) ) ;
#5 = DATE_TIME_ROLE ( 'creation_date' ) ;
#6 = ORIENTED_EDGE ( 'NONE', *, *, #489, .T. ) ;
#7 = EDGE_CURVE ( 'NONE', #374, #501, #703, .T. ) ;
#8 = CARTESIAN_POINT ( 'NONE',  ( -37.99999999999999289, 9.500000000000000000, -7.863116217959562905E-16 ) ) ;
#9 = PLANE ( 'NONE',  #500 ) ;
#10 = ORIENTED_EDGE ( 'NONE', *, *, #823, .F. ) ;
#11 = DIRECTION ( 'NONE',  ( -0.000000000000000000, -1.000000000000000000, -0.000000000000000000 ) ) ;
#12 = CARTESIAN_POINT ( 'NONE',  ( 88.50000000000001421, 4.000000000000000000, 6.500000000000000000 ) ) ;
#13 = ADVANCED_FACE ( 'NONE', ( #644 ), #60, .F. ) ;
#14 = EDGE_LOOP ( 'NONE', ( #44, #321 ) ) ;
#15 = DIRECTION ( 'NONE',  ( 0.000000000000000000, -0.000000000000000000, -1.000000000000000000 ) ) ;
#16 = CARTESIAN_POINT ( 'NONE',  ( -92.99999999999997158, 13.00000000000000000, -10.00000000000000000 ) ) ;
#17 = VECTOR ( 'NONE', #498, 1000.000000000000000 ) ;
#18 = CARTESIAN_POINT ( 'NONE',  ( -93.00000000000001421, 15.00000000000000000, -14.87379544349360927 ) ) ;
#19 = PERSON_AND_ORGANIZATION ( #131, #581 ) ;
#20 = ORIENTED_EDGE ( 'NONE', *, *, #449, .T. ) ;
#21 = CARTESIAN_POINT ( 'NONE',  ( 72.00000000000000000, 9.500000000000000000, -2.750000000000007550 ) ) ;
#22 = VECTOR ( 'NONE', #811, 1000.000000000000000 ) ;
#23 = DIRECTION ( 'NONE',  ( 0.000000000000000000, 0.000000000000000000, -1.000000000000000000 ) ) ;
#24 = LINE ( 'NONE', #98, #376 ) ;
#25 = COORDINATED_UNIVERSAL_TIME_OFFSET ( 8, 0, .AHEAD. ) ;
#26 = DIRECTION ( 'NONE',  ( 1.000000000000000000, 0.000000000000000000, 0.000000000000000000 ) ) ;
#27 = VERTEX_POINT ( 'NONE', #591 ) ;
#28 = CARTESIAN_POINT ( 'NONE',  ( 91.25664548620657968, -5.365493486562106007, 8.256645486206600992 ) ) ;
#29 = LINE ( 'NONE', #796, #708 ) ;
#30 = DIRECTION ( 'NONE',  ( -0.000000000000000000, -1.000000000000000000, -0.000000000000000000 ) ) ;
#31 = SECURITY_CLASSIFICATION_LEVEL ( 'unclassified' ) ;
#32 = ORIENTED_EDGE ( 'NONE', *, *, #413, .F. ) ;
#33 = CYLINDRICAL_SURFACE ( 'NONE', #839, 2.750000000000001776 ) ;
#34 = DIRECTION ( 'NONE',  ( -0.000000000000000000, -1.000000000000000000, -0.000000000000000000 ) ) ;
#35 = EDGE_CURVE ( 'NONE', #437, #68, #280, .T. ) ;
#36 = DIRECTION ( 'NONE',  ( 0.000000000000000000, 0.000000000000000000, 1.000000000000000000 ) ) ;
#37 = AXIS2_PLACEMENT_3D ( 'NONE', #112, #821, #375 ) ;
#38 = ORIENTED_EDGE ( 'NONE', *, *, #187, .T. ) ;
#39 = CARTESIAN_POINT ( 'NONE',  ( -92.99999999999997158, 13.00000000000000000, 10.00000000000000000 ) ) ;
#40 = DIRECTION ( 'NONE',  ( -0.000000000000000000, -1.000000000000000000, -0.000000000000000000 ) ) ;
#41 = AXIS2_PLACEMENT_3D ( 'NONE', #684, #97, #23 ) ;
#42 = ADVANCED_FACE ( 'NONE', ( #268, #394 ), #452, .T. ) ;
#43 = CYLINDRICAL_SURFACE ( 'NONE', #721, 2.750000000000001776 ) ;
#44 = ORIENTED_EDGE ( 'NONE', *, *, #66, .T. ) ;
#45 = DIRECTION ( 'NONE',  ( 1.000000000000000000, 0.000000000000000000, 0.000000000000000000 ) ) ;
#46 = ORIENTED_EDGE ( 'NONE', *, *, #608, .T. ) ;
#47 = ORIENTED_EDGE ( 'NONE', *, *, #830, .F. ) ;
#48 = CARTESIAN_POINT ( 'NONE',  ( -88.49999999999998579, 0.000000000000000000, 6.500000000000000000 ) ) ;
#49 = VECTOR ( 'NONE', #367, 1000.000000000000000 ) ;
#50 = PRODUCT_DEFINITION ( '未知', '', #661, #323 ) ;
#51 = VECTOR ( 'NONE', #576, 1000.000000000000000 ) ;
#52 = ORIENTED_EDGE ( 'NONE', *, *, #365, .F. ) ;
#53 = VERTEX_POINT ( 'NONE', #528 ) ;
#54 = LOCAL_TIME ( 15, 8, 30.00000000000000000, #747 ) ;
#55 = ORIENTED_EDGE ( 'NONE', *, *, #262, .F. ) ;
#56 = DIRECTION ( 'NONE',  ( 0.000000000000000000, -0.000000000000000000, 1.000000000000000000 ) ) ;
#57 = ADVANCED_FACE ( 'NONE', ( #711 ), #2, .F. ) ;
#58 = LINE ( 'NONE', #582, #840 ) ;
#59 = VERTEX_POINT ( 'NONE', #397 ) ;
#60 = CYLINDRICAL_SURFACE ( 'NONE', #588, 2.750000000000001776 ) ;
#61 = CARTESIAN_POINT ( 'NONE',  ( -37.99999999999999289, 9.500000000000000000, -2.750000000000002665 ) ) ;
#62 = ORIENTED_EDGE ( 'NONE', *, *, #3, .T. ) ;
#63 = CARTESIAN_POINT ( 'NONE',  ( -92.99999999999997158, 13.00000000000000000, -10.00000000000000000 ) ) ;
#64 = CIRCLE ( 'NONE', #412, 2.750000000000008438 ) ;
#65 = CARTESIAN_POINT ( 'NONE',  ( -88.49999999999998579, 4.000000000000000000, -6.500000000000000000 ) ) ;
#66 = EDGE_CURVE ( 'NONE', #572, #374, #349, .T. ) ;
#67 = EDGE_CURVE ( 'NONE', #497, #760, #276, .T. ) ;
#68 = VERTEX_POINT ( 'NONE', #75 ) ;
#69 = DIRECTION ( 'NONE',  ( 0.000000000000000000, -1.000000000000000000, 0.000000000000000000 ) ) ;
#70 = VECTOR ( 'NONE', #810, 1000.000000000000000 ) ;
#71 = CARTESIAN_POINT ( 'NONE',  ( -37.99999999999999289, 9.500000000000000000, 2.750000000000000888 ) ) ;
#72 = APPROVAL_ROLE ( '' ) ;
#73 = EDGE_LOOP ( 'NONE', ( #769, #32, #175, #634 ) ) ;
#74 = EDGE_CURVE ( 'NONE', #618, #579, #407, .T. ) ;
#75 = CARTESIAN_POINT ( 'NONE',  ( -92.99999999999997158, 13.00000000000000000, 10.00000000000000000 ) ) ;
#76 = CIRCLE ( 'NONE', #601, 2.750000000000008438 ) ;
#77 = LINE ( 'NONE', #18, #773 ) ;
#78 = ORIENTED_EDGE ( 'NONE', *, *, #449, .F. ) ;
#79 = AXIS2_PLACEMENT_3D ( 'NONE', #418, #352, #92 ) ;
#80 = DIRECTION ( 'NONE',  ( 0.000000000000000000, 0.000000000000000000, -1.000000000000000000 ) ) ;
#81 = CARTESIAN_POINT ( 'NONE',  ( -92.99999999999997158, 13.00000000000000000, -10.00000000000000000 ) ) ;
#82 = DIRECTION ( 'NONE',  ( 0.2952418088443268807, -0.9086608545660256331, -0.2952418088443269362 ) ) ;
#83 = UNCERTAINTY_MEASURE_WITH_UNIT (LENGTH_MEASURE( 1.000000000000000082E-05 ), #466, 'distance_accuracy_value', 'NONE');
#84 = VERTEX_POINT ( 'NONE', #577 ) ;
#85 = FACE_BOUND ( 'NONE', #515, .T. ) ;
#86 = DIRECTION ( 'NONE',  ( -0.000000000000000000, -0.000000000000000000, 1.000000000000000000 ) ) ;
#87 = EDGE_CURVE ( 'NONE', #350, #27, #594, .T. ) ;
#88 = FACE_OUTER_BOUND ( 'NONE', #791, .T. ) ;
#89 = PLANE ( 'NONE',  #178 ) ;
#90 = ORIENTED_EDGE ( 'NONE', *, *, #213, .F. ) ;
#91 = LINE ( 'NONE', #21, #737 ) ;
#92 = DIRECTION ( 'NONE',  ( 0.000000000000000000, -0.000000000000000000, 1.000000000000000000 ) ) ;
#93 = CARTESIAN_POINT ( 'NONE',  ( -88.49999999999998579, 4.000000000000000000, -6.500000000000000000 ) ) ;
#94 = DATE_AND_TIME ( #484, #54 ) ;
#95 = CARTESIAN_POINT ( 'NONE',  ( 0.000000000000000000, 0.000000000000000000, 0.000000000000000000 ) ) ;
#96 = DIRECTION ( 'NONE',  ( -0.000000000000000000, 1.000000000000000000, -0.000000000000000000 ) ) ;
#97 = DIRECTION ( 'NONE',  ( -0.000000000000000000, -1.000000000000000000, -0.000000000000000000 ) ) ;
#98 = CARTESIAN_POINT ( 'NONE',  ( -92.99999999999997158, 15.00000000000000000, -10.00000000000000000 ) ) ;
#99 = ORIENTED_EDGE ( 'NONE', *, *, #35, .T. ) ;
#100 = EDGE_CURVE ( 'NONE', #698, #501, #271, .T. ) ;
#101 = EDGE_CURVE ( 'NONE', #521, #710, #665, .T. ) ;
#102 = DIRECTION ( 'NONE',  ( 0.000000000000000000, -1.000000000000000000, 0.000000000000000000 ) ) ;
#103 = DIRECTION ( 'NONE',  ( 0.000000000000000000, -1.000000000000000000, 0.000000000000000000 ) ) ;
#104 = DATE_TIME_ROLE ( 'classification_date' ) ;
#105 = CARTESIAN_POINT ( 'NONE',  ( -88.49999999999998579, 4.000000000000000000, -6.500000000000000000 ) ) ;
#106 = EDGE_CURVE ( 'NONE', #374, #572, #764, .T. ) ;
#107 = DIRECTION ( 'NONE',  ( 0.000000000000000000, 0.000000000000000000, -1.000000000000000000 ) ) ;
#108 = CARTESIAN_POINT ( 'NONE',  ( -72.00000000000000000, 9.500000000000000000, -1.267080867070670108E-16 ) ) ;
#109 = AXIS2_PLACEMENT_3D ( 'NONE', #617, #36, #304 ) ;
#110 = LINE ( 'NONE', #517, #51 ) ;
#111 = VERTEX_POINT ( 'NONE', #283 ) ;
#112 = CARTESIAN_POINT ( 'NONE',  ( -72.00000000000000000, 9.500000000000000000, -1.267080867070670108E-16 ) ) ;
#113 = EDGE_CURVE ( 'NONE', #53, #357, #298, .T. ) ;
#114 = CARTESIAN_POINT ( 'NONE',  ( -93.00000000000001421, 0.000000000000000000, -10.00000000000000000 ) ) ;
#115 = ORIENTED_EDGE ( 'NONE', *, *, #671, .F. ) ;
#116 = VECTOR ( 'NONE', #96, 1000.000000000000000 ) ;
#117 = CIRCLE ( 'NONE', #732, 2.750000000000008438 ) ;
#118 = ORIENTED_EDGE ( 'NONE', *, *, #370, .T. ) ;
#119 = ORIENTED_EDGE ( 'NONE', *, *, #100, .F. ) ;
#120 = ORIENTED_EDGE ( 'NONE', *, *, #672, .T. ) ;
#121 = ADVANCED_FACE ( 'NONE', ( #468, #85, #244, #410, #358 ), #614, .T. ) ;
#122 = EDGE_CURVE ( 'NONE', #437, #497, #351, .T. ) ;
#123 = VERTEX_POINT ( 'NONE', #286 ) ;
#124 = ORIENTED_EDGE ( 'NONE', *, *, #163, .F. ) ;
#125 = PLANE ( 'NONE',  #632 ) ;
#126 = DIRECTION ( 'NONE',  ( 0.000000000000000000, -1.000000000000000000, 0.000000000000000000 ) ) ;
#127 = CIRCLE ( 'NONE', #239, 2.750000000000008438 ) ;
#128 = ORIENTED_EDGE ( 'NONE', *, *, #7, .T. ) ;
#129 = DIRECTION ( 'NONE',  ( 0.000000000000000000, 0.000000000000000000, -1.000000000000000000 ) ) ;
#130 = DIRECTION ( 'NONE',  ( 0.000000000000000000, 0.000000000000000000, 1.000000000000000000 ) ) ;
#131 = PERSON ( '未指定', '未指定', '未指定', ('未指定'), ('未指定'), ('未指定') ) ;
#132 = VECTOR ( 'NONE', #82, 1000.000000000000114 ) ;
#133 = ORIENTED_EDGE ( 'NONE', *, *, #164, .F. ) ;
#134 = CARTESIAN_POINT ( 'NONE',  ( 88.50000000000001421, 4.000000000000000000, 6.500000000000000000 ) ) ;
#135 = APPLICATION_CONTEXT ( 'configuration controlled 3d designs of mechanical parts and assemblies' ) ;
#136 = DIRECTION ( 'NONE',  ( 0.000000000000000000, 0.000000000000000000, -1.000000000000000000 ) ) ;
#137 = APPROVAL_STATUS ( 'not_yet_approved' ) ;
#138 = ORIENTED_EDGE ( 'NONE', *, *, #400, .T. ) ;
#139 = DIRECTION ( 'NONE',  ( 0.000000000000000000, -0.000000000000000000, 1.000000000000000000 ) ) ;
#140 = LINE ( 'NONE', #587, #347 ) ;
#141 = CALENDAR_DATE ( 2026, 4, 6 ) ;
#142 = EDGE_LOOP ( 'NONE', ( #787, #138 ) ) ;
#143 = DIRECTION ( 'NONE',  ( 1.000000000000000000, -0.000000000000000000, 0.000000000000000000 ) ) ;
#144 = CARTESIAN_POINT ( 'NONE',  ( 72.00000000000000000, 9.500000000000000000, 7.692121724891537867E-16 ) ) ;
#145 =( NAMED_UNIT ( * ) PLANE_ANGLE_UNIT ( ) SI_UNIT ( $, .RADIAN. ) );
#146 = ORIENTED_EDGE ( 'NONE', *, *, #187, .F. ) ;
#147 = VECTOR ( 'NONE', #212, 1000.000000000000000 ) ;
#148 = DIRECTION ( 'NONE',  ( 0.000000000000000000, -1.000000000000000000, 0.000000000000000000 ) ) ;
#149 = EDGE_CURVE ( 'NONE', #384, #597, #91, .T. ) ;
#150 = FACE_OUTER_BOUND ( 'NONE', #385, .T. ) ;
#151 = LINE ( 'NONE', #414, #625 ) ;
#152 = VECTOR ( 'NONE', #288, 1000.000000000000000 ) ;
#153 = ORIENTED_EDGE ( 'NONE', *, *, #149, .T. ) ;
#154 = CARTESIAN_POINT ( 'NONE',  ( -72.00000000000000000, 9.500000000000000000, -2.750000000000008438 ) ) ;
#155 = AXIS2_PLACEMENT_3D ( 'NONE', #725, #538, #15 ) ;
#156 = CARTESIAN_POINT ( 'NONE',  ( -92.99999999999997158, 13.00000000000000000, 10.00000000000000000 ) ) ;
#157 = DIRECTION ( 'NONE',  ( 0.000000000000000000, -1.000000000000000000, 0.000000000000000000 ) ) ;
#158 = VECTOR ( 'NONE', #642, 1000.000000000000000 ) ;
#159 = EDGE_LOOP ( 'NONE', ( #62, #393, #184, #573 ) ) ;
#160 = DIRECTION ( 'NONE',  ( 0.000000000000000000, 0.000000000000000000, -1.000000000000000000 ) ) ;
#161 = PLANE ( 'NONE',  #265 ) ;
#162 = CARTESIAN_POINT ( 'NONE',  ( -88.49999999999998579, 4.000000000000000000, -6.500000000000000000 ) ) ;
#163 = EDGE_CURVE ( 'NONE', #59, #618, #291, .T. ) ;
#164 = EDGE_CURVE ( 'NONE', #501, #698, #419, .T. ) ;
#165 = EDGE_LOOP ( 'NONE', ( #6, #366 ) ) ;
#166 = CARTESIAN_POINT ( 'NONE',  ( -93.00000000000001421, 0.000000000000000000, -10.00000000000000000 ) ) ;
#167 = CARTESIAN_POINT ( 'NONE',  ( 88.50000000000001421, 4.000000000000000000, -6.500000000000000000 ) ) ;
#168 = CYLINDRICAL_SURFACE ( 'NONE', #696, 2.750000000000008438 ) ;
#169 = PERSON_AND_ORGANIZATION_ROLE ( 'classification_officer' ) ;
#170 = ADVANCED_FACE ( 'NONE', ( #480 ), #33, .F. ) ;
#171 = ORIENTED_EDGE ( 'NONE', *, *, #74, .F. ) ;
#172 = CARTESIAN_POINT ( 'NONE',  ( -88.49999999999998579, 0.000000000000000000, 6.500000000000000000 ) ) ;
#173 = LINE ( 'NONE', #162, #454 ) ;
#174 = DIRECTION ( 'NONE',  ( 1.000000000000000000, 0.000000000000000000, 0.000000000000000000 ) ) ;
#175 = ORIENTED_EDGE ( 'NONE', *, *, #783, .T. ) ;
#176 = ADVANCED_FACE ( 'NONE', ( #609 ), #237, .F. ) ;
#177 = DIRECTION ( 'NONE',  ( 0.000000000000000000, 0.000000000000000000, -1.000000000000000000 ) ) ;
#178 = AXIS2_PLACEMENT_3D ( 'NONE', #730, #339, #535 ) ;
#179 = LINE ( 'NONE', #511, #804 ) ;
#180 = ORIENTED_EDGE ( 'NONE', *, *, #641, .F. ) ;
#181 = CARTESIAN_POINT ( 'NONE',  ( -93.00000000000001421, 0.000000000000000000, -10.00000000000000000 ) ) ;
#182 = PERSON_AND_ORGANIZATION ( #131, #581 ) ;
#183 = AXIS2_PLACEMENT_3D ( 'NONE', #686, #788, #136 ) ;
#184 = ORIENTED_EDGE ( 'NONE', *, *, #253, .T. ) ;
#185 = VECTOR ( 'NONE', #833, 1000.000000000000000 ) ;
#186 = VERTEX_POINT ( 'NONE', #166 ) ;
#187 = EDGE_CURVE ( 'NONE', #201, #437, #679, .T. ) ;
#188 = ORIENTED_EDGE ( 'NONE', *, *, #688, .F. ) ;
#189 = APPROVAL_PERSON_ORGANIZATION ( #781, #763, #208 ) ;
#190 = LINE ( 'NONE', #702, #229 ) ;
#191 = EDGE_CURVE ( 'NONE', #579, #379, #749, .T. ) ;
#192 = ORIENTED_EDGE ( 'NONE', *, *, #370, .F. ) ;
#193 = CARTESIAN_POINT ( 'NONE',  ( 88.50000000000001421, 4.000000000000000000, 6.500000000000000000 ) ) ;
#194 = CIRCLE ( 'NONE', #311, 2.750000000000008438 ) ;
#195 = DIRECTION ( 'NONE',  ( 0.000000000000000000, -0.3090169943749482284, 0.9510565162951534202 ) ) ;
#196 = VECTOR ( 'NONE', #377, 1000.000000000000000 ) ;
#197 = ORIENTED_EDGE ( 'NONE', *, *, #785, .F. ) ;
#198 = DIRECTION ( 'NONE',  ( -0.000000000000000000, -1.000000000000000000, -0.000000000000000000 ) ) ;
#199 = CC_DESIGN_PERSON_AND_ORGANIZATION_ASSIGNMENT ( #428, #803, ( #661 ) ) ;
#200 = DIRECTION ( 'NONE',  ( 0.000000000000000000, 0.000000000000000000, -1.000000000000000000 ) ) ;
#201 = VERTEX_POINT ( 'NONE', #829 ) ;
#202 = CARTESIAN_POINT ( 'NONE',  ( -72.00000000000000000, 4.000000000000000000, 2.750000000000008438 ) ) ;
#203 = PERSON_AND_ORGANIZATION ( #131, #581 ) ;
#204 = LOCAL_TIME ( 15, 8, 30.00000000000000000, #718 ) ;
#205 = ORIENTED_EDGE ( 'NONE', *, *, #512, .T. ) ;
#206 = CIRCLE ( 'NONE', #183, 2.750000000000008438 ) ;
#207 = DIRECTION ( 'NONE',  ( -0.000000000000000000, 1.000000000000000000, -0.000000000000000000 ) ) ;
#208 = APPROVAL_ROLE ( '' ) ;
#209 = CARTESIAN_POINT ( 'NONE',  ( -88.49999999999998579, 4.000000000000000000, 6.500000000000000000 ) ) ;
#210 = VERTEX_POINT ( 'NONE', #61 ) ;
#211 = DIRECTION ( 'NONE',  ( 0.000000000000000000, -1.000000000000000000, 0.000000000000000000 ) ) ;
#212 = DIRECTION ( 'NONE',  ( -1.000000000000000000, -0.000000000000000000, -0.000000000000000000 ) ) ;
#213 = EDGE_CURVE ( 'NONE', #111, #673, #58, .T. ) ;
#214 = ORIENTED_EDGE ( 'NONE', *, *, #457, .F. ) ;
#215 = DIRECTION ( 'NONE',  ( 0.000000000000000000, -1.000000000000000000, 0.000000000000000000 ) ) ;
#216 = VECTOR ( 'NONE', #692, 1000.000000000000000 ) ;
#217 = DIRECTION ( 'NONE',  ( 0.3090169943749481174, -0.9510565162951533091, 0.000000000000000000 ) ) ;
#218 = CARTESIAN_POINT ( 'NONE',  ( -92.99999999999997158, 15.00000000000000000, -10.00000000000000000 ) ) ;
#219 = APPLICATION_PROTOCOL_DEFINITION ( 'international standard', 'config_control_design', 1994, #837 ) ;
#220 = ORIENTED_EDGE ( 'NONE', *, *, #724, .T. ) ;
#221 = DIRECTION ( 'NONE',  ( 0.000000000000000000, 0.000000000000000000, -1.000000000000000000 ) ) ;
#222 = CARTESIAN_POINT ( 'NONE',  ( -72.00000000000000000, 4.000000000000000000, -2.750000000000008438 ) ) ;
#223 = DIRECTION ( 'NONE',  ( -1.000000000000000000, 0.000000000000000000, -0.000000000000000000 ) ) ;
#224 = DATE_AND_TIME ( #713, #559 ) ;
#225 = AXIS2_PLACEMENT_3D ( 'NONE', #81, #709, #592 ) ;
#226 = LINE ( 'NONE', #478, #132 ) ;
#227 = ORIENTED_EDGE ( 'NONE', *, *, #35, .F. ) ;
#228 = DIRECTION ( 'NONE',  ( 0.000000000000000000, -1.000000000000000000, 0.000000000000000000 ) ) ;
#229 = VECTOR ( 'NONE', #770, 1000.000000000000000 ) ;
#230 = DIRECTION ( 'NONE',  ( -0.000000000000000000, -1.000000000000000000, -0.000000000000000000 ) ) ;
#231 = ADVANCED_FACE ( 'NONE', ( #629 ), #567, .F. ) ;
#232 = PRODUCT_RELATED_PRODUCT_CATEGORY ( 'detail', '', ( #404 ) ) ;
#233 = DIRECTION ( 'NONE',  ( -0.000000000000000000, -1.000000000000000000, -0.000000000000000000 ) ) ;
#234 = APPROVAL_ROLE ( '' ) ;
#235 = AXIS2_PLACEMENT_3D ( 'NONE', #388, #326, #373 ) ;
#236 = ORIENTED_EDGE ( 'NONE', *, *, #636, .F. ) ;
#237 = PLANE ( 'NONE',  #547 ) ;
#238 = LINE ( 'NONE', #481, #756 ) ;
#239 = AXIS2_PLACEMENT_3D ( 'NONE', #108, #157, #477 ) ;
#240 = ADVANCED_FACE ( 'NONE', ( #263 ), #266, .T. ) ;
#241 = CARTESIAN_POINT ( 'NONE',  ( -93.00000000000001421, 0.000000000000000000, -10.00000000000000000 ) ) ;
#242 = CALENDAR_DATE ( 2026, 4, 6 ) ;
#243 = EDGE_LOOP ( 'NONE', ( #115, #510, #330, #171 ) ) ;
#244 = FACE_BOUND ( 'NONE', #776, .T. ) ;
#245 = AXIS2_PLACEMENT_3D ( 'NONE', #492, #734, #217 ) ;
#246 = CARTESIAN_POINT ( 'NONE',  ( -92.99999999999997158, 15.00000000000000000, 10.00000000000000000 ) ) ;
#247 = DIRECTION ( 'NONE',  ( -0.000000000000000000, -1.000000000000000000, -0.000000000000000000 ) ) ;
#248 = EDGE_CURVE ( 'NONE', #350, #111, #110, .T. ) ;
#249 = ORIENTED_EDGE ( 'NONE', *, *, #523, .F. ) ;
#250 = LINE ( 'NONE', #114, #273 ) ;
#251 = VERTEX_POINT ( 'NONE', #312 ) ;
#252 = LINE ( 'NONE', #808, #503 ) ;
#253 = EDGE_CURVE ( 'NONE', #59, #505, #645, .T. ) ;
#254 = DIRECTION ( 'NONE',  ( 0.000000000000000000, 1.000000000000000000, 0.000000000000000000 ) ) ;
#255 = ORIENTED_EDGE ( 'NONE', *, *, #325, .T. ) ;
#256 = LINE ( 'NONE', #504, #216 ) ;
#257 = VECTOR ( 'NONE', #680, 1000.000000000000000 ) ;
#258 = EDGE_CURVE ( 'NONE', #251, #27, #332, .T. ) ;
#259 = CC_DESIGN_DATE_AND_TIME_ASSIGNMENT ( #334, #5, ( #50 ) ) ;
#260 = ORIENTED_EDGE ( 'NONE', *, *, #325, .F. ) ;
#261 = ORIENTED_EDGE ( 'NONE', *, *, #346, .F. ) ;
#262 = EDGE_CURVE ( 'NONE', #27, #673, #190, .T. ) ;
#263 = FACE_OUTER_BOUND ( 'NONE', #479, .T. ) ;
#264 = LINE ( 'NONE', #193, #444 ) ;
#265 = AXIS2_PLACEMENT_3D ( 'NONE', #156, #750, #303 ) ;
#266 = PLANE ( 'NONE',  #586 ) ;
#267 = ADVANCED_FACE ( 'NONE', ( #619 ), #513, .T. ) ;
#268 = FACE_BOUND ( 'NONE', #507, .T. ) ;
#269 = VECTOR ( 'NONE', #565, 1000.000000000000000 ) ;
#270 = DIRECTION ( 'NONE',  ( -0.2952418088443268807, -0.9086608545660256331, 0.2952418088443269362 ) ) ;
#271 = CIRCLE ( 'NONE', #652, 2.750000000000001776 ) ;
#272 = ORIENTED_EDGE ( 'NONE', *, *, #253, .F. ) ;
#273 = VECTOR ( 'NONE', #328, 1000.000000000000000 ) ;
#274 = CARTESIAN_POINT ( 'NONE',  ( 72.00000000000000000, 9.500000000000000000, -2.750000000000007550 ) ) ;
#275 = EDGE_LOOP ( 'NONE', ( #285, #314, #336, #455 ) ) ;
#276 = LINE ( 'NONE', #655, #380 ) ;
#277 = DIRECTION ( 'NONE',  ( 0.000000000000000000, -1.000000000000000000, 0.000000000000000000 ) ) ;
#278 = FACE_OUTER_BOUND ( 'NONE', #548, .T. ) ;
#279 = EDGE_LOOP ( 'NONE', ( #52, #561, #46, #825 ) ) ;
#280 = LINE ( 'NONE', #63, #185 ) ;
#281 = EDGE_CURVE ( 'NONE', #505, #579, #827, .T. ) ;
#282 = ORIENTED_EDGE ( 'NONE', *, *, #163, .T. ) ;
#283 = CARTESIAN_POINT ( 'NONE',  ( 97.87379544349359151, 15.00000000000000000, -14.87379544349360927 ) ) ;
#284 = CARTESIAN_POINT ( 'NONE',  ( -72.00000000000000000, 9.500000000000000000, -1.267080867070670108E-16 ) ) ;
#285 = ORIENTED_EDGE ( 'NONE', *, *, #724, .F. ) ;
#286 = CARTESIAN_POINT ( 'NONE',  ( -97.87379544349361993, 15.00000000000000000, 14.87379544349360927 ) ) ;
#287 = FACE_OUTER_BOUND ( 'NONE', #290, .T. ) ;
#288 = DIRECTION ( 'NONE',  ( -0.000000000000000000, -1.000000000000000000, -0.000000000000000000 ) ) ;
#289 = CALENDAR_DATE ( 2026, 4, 6 ) ;
#290 = EDGE_LOOP ( 'NONE', ( #527, #509, #146, #361 ) ) ;
#291 = LINE ( 'NONE', #543, #441 ) ;
#292 = PLANE ( 'NONE',  #490 ) ;
#293 = DIRECTION ( 'NONE',  ( -1.000000000000000000, -0.000000000000000000, -0.000000000000000000 ) ) ;
#294 = MANIFOLD_SOLID_BREP ( '切除-拉伸6', #697 ) ;
#295 = AXIS2_PLACEMENT_3D ( 'NONE', #841, #277, #4 ) ;
#296 = MECHANICAL_CONTEXT ( 'NONE', #837, 'mechanical' ) ;
#297 = ORIENTED_EDGE ( 'NONE', *, *, #627, .F. ) ;
#298 = CIRCLE ( 'NONE', #508, 2.750000000000001776 ) ;
#299 = CARTESIAN_POINT ( 'NONE',  ( 38.00000000000000711, 4.000000000000000000, -2.750000000000000888 ) ) ;
#300 = LINE ( 'NONE', #676, #17 ) ;
#301 = ORIENTED_EDGE ( 'NONE', *, *, #783, .F. ) ;
#302 = CARTESIAN_POINT ( 'NONE',  ( -37.99999999999999289, 9.500000000000000000, -7.863116217959562905E-16 ) ) ;
#303 = DIRECTION ( 'NONE',  ( 1.000000000000000000, 0.000000000000000000, 0.000000000000000000 ) ) ;
#304 = DIRECTION ( 'NONE',  ( 1.000000000000000000, 0.000000000000000000, -0.000000000000000000 ) ) ;
#305 = VERTEX_POINT ( 'NONE', #391 ) ;
#306 = FACE_OUTER_BOUND ( 'NONE', #14, .T. ) ;
#307 = APPROVAL_PERSON_ORGANIZATION ( #182, #771, #234 ) ;
#308 = LINE ( 'NONE', #172, #257 ) ;
#309 = DIRECTION ( 'NONE',  ( -0.000000000000000000, -1.000000000000000000, -0.000000000000000000 ) ) ;
#310 = EDGE_CURVE ( 'NONE', #68, #760, #562, .T. ) ;
#311 = AXIS2_PLACEMENT_3D ( 'NONE', #284, #712, #793 ) ;
#312 = CARTESIAN_POINT ( 'NONE',  ( -93.00000000000001421, 0.000000000000000000, 10.00000000000000000 ) ) ;
#313 = EDGE_LOOP ( 'NONE', ( #832, #485, #720, #748 ) ) ;
#314 = ORIENTED_EDGE ( 'NONE', *, *, #551, .F. ) ;
#315 = AXIS2_PLACEMENT_3D ( 'NONE', #819, #578, #436 ) ;
#316 = FACE_OUTER_BOUND ( 'NONE', #799, .T. ) ;
#317 = APPROVAL_STATUS ( 'not_yet_approved' ) ;
#318 = ORIENTED_EDGE ( 'NONE', *, *, #381, .T. ) ;
#319 = ADVANCED_FACE ( 'NONE', ( #306 ), #125, .T. ) ;
#320 = ORIENTED_EDGE ( 'NONE', *, *, #248, .F. ) ;
#321 = ORIENTED_EDGE ( 'NONE', *, *, #106, .T. ) ;
#322 = EDGE_CURVE ( 'NONE', #760, #401, #179, .T. ) ;
#323 = DESIGN_CONTEXT ( 'detailed design', #135, 'design' ) ;
#324 = ORIENTED_EDGE ( 'NONE', *, *, #688, .T. ) ;
#325 = EDGE_CURVE ( 'NONE', #673, #186, #250, .T. ) ;
#326 = DIRECTION ( 'NONE',  ( 0.000000000000000000, -1.000000000000000000, 0.000000000000000000 ) ) ;
#327 = EDGE_LOOP ( 'NONE', ( #569, #445, #180, #118 ) ) ;
#328 = DIRECTION ( 'NONE',  ( -1.000000000000000000, -0.000000000000000000, -0.000000000000000000 ) ) ;
#329 = CIRCLE ( 'NONE', #660, 2.750000000000008438 ) ;
#330 = ORIENTED_EDGE ( 'NONE', *, *, #191, .F. ) ;
#331 = DIRECTION ( 'NONE',  ( -0.000000000000000000, -1.000000000000000000, -0.000000000000000000 ) ) ;
#332 = LINE ( 'NONE', #757, #630 ) ;
#333 = ORIENTED_EDGE ( 'NONE', *, *, #753, .T. ) ;
#334 = DATE_AND_TIME ( #289, #699 ) ;
#335 = VECTOR ( 'NONE', #690, 1000.000000000000000 ) ;
#336 = ORIENTED_EDGE ( 'NONE', *, *, #101, .T. ) ;
#337 = DIRECTION ( 'NONE',  ( 0.000000000000000000, 0.000000000000000000, -1.000000000000000000 ) ) ;
#338 = DIRECTION ( 'NONE',  ( -0.000000000000000000, -1.000000000000000000, -0.000000000000000000 ) ) ;
#339 = DIRECTION ( 'NONE',  ( 0.9510565162951534202, -0.3090169943749481729, 0.000000000000000000 ) ) ;
#340 = DIRECTION ( 'NONE',  ( 0.000000000000000000, 0.000000000000000000, -1.000000000000000000 ) ) ;
#341 = ADVANCED_FACE ( 'NONE', ( #434 ), #774, .T. ) ;
#342 = PLANE ( 'NONE',  #225 ) ;
#343 = VECTOR ( 'NONE', #230, 1000.000000000000000 ) ;
#344 = CARTESIAN_POINT ( 'NONE',  ( 72.00000000000000000, 9.500000000000000000, 7.692121724891537867E-16 ) ) ;
#345 = VERTEX_POINT ( 'NONE', #705 ) ;
#346 = EDGE_CURVE ( 'NONE', #710, #442, #117, .T. ) ;
#347 = VECTOR ( 'NONE', #338, 1000.000000000000000 ) ;
#348 = CARTESIAN_POINT ( 'NONE',  ( 93.00000000000002842, 15.00000000000000000, 10.00000000000000000 ) ) ;
#349 = CIRCLE ( 'NONE', #382, 2.750000000000001776 ) ;
#350 = VERTEX_POINT ( 'NONE', #453 ) ;
#351 = LINE ( 'NONE', #598, #116 ) ;
#352 = DIRECTION ( 'NONE',  ( 0.000000000000000000, 1.000000000000000000, 0.000000000000000000 ) ) ;
#353 = CC_DESIGN_PERSON_AND_ORGANIZATION_ASSIGNMENT ( #203, #459, ( #404 ) ) ;
#354 = EDGE_LOOP ( 'NONE', ( #261, #691 ) ) ;
#355 = DIRECTION ( 'NONE',  ( -0.000000000000000000, -1.000000000000000000, -0.000000000000000000 ) ) ;
#356 = DIRECTION ( 'NONE',  ( 0.000000000000000000, 0.000000000000000000, -1.000000000000000000 ) ) ;
#357 = VERTEX_POINT ( 'NONE', #754 ) ;
#358 = FACE_OUTER_BOUND ( 'NONE', #159, .T. ) ;
#359 = PLANE ( 'NONE',  #79 ) ;
#360 = DIRECTION ( 'NONE',  ( 0.2952418088443268807, -0.9086608545660256331, 0.2952418088443269362 ) ) ;
#361 = ORIENTED_EDGE ( 'NONE', *, *, #789, .T. ) ;
#362 = DIRECTION ( 'NONE',  ( -0.000000000000000000, -1.000000000000000000, -0.000000000000000000 ) ) ;
#363 = CYLINDRICAL_SURFACE ( 'NONE', #41, 2.750000000000008438 ) ;
#364 = PLANE ( 'NONE',  #109 ) ;
#365 = EDGE_CURVE ( 'NONE', #345, #384, #206, .T. ) ;
#366 = ORIENTED_EDGE ( 'NONE', *, *, #365, .T. ) ;
#367 = DIRECTION ( 'NONE',  ( 0.000000000000000000, 0.000000000000000000, -1.000000000000000000 ) ) ;
#368 = PLANE ( 'NONE',  #245 ) ;
#369 = CIRCLE ( 'NONE', #828, 2.750000000000001776 ) ;
#370 = EDGE_CURVE ( 'NONE', #440, #401, #596, .T. ) ;
#371 = CARTESIAN_POINT ( 'NONE',  ( 72.00000000000000000, 9.500000000000000000, 7.692121724891537867E-16 ) ) ;
#372 = PERSON_AND_ORGANIZATION ( #131, #581 ) ;
#373 = DIRECTION ( 'NONE',  ( 0.000000000000000000, -0.000000000000000000, -1.000000000000000000 ) ) ;
#374 = VERTEX_POINT ( 'NONE', #398 ) ;
#375 = DIRECTION ( 'NONE',  ( 0.000000000000000000, -0.000000000000000000, -1.000000000000000000 ) ) ;
#376 = VECTOR ( 'NONE', #293, 1000.000000000000000 ) ;
#377 = DIRECTION ( 'NONE',  ( 1.000000000000000000, 0.000000000000000000, 0.000000000000000000 ) ) ;
#378 = EDGE_LOOP ( 'NONE', ( #120, #236, #574, #542 ) ) ;
#379 = VERTEX_POINT ( 'NONE', #780 ) ;
#380 = VECTOR ( 'NONE', #522, 1000.000000000000000 ) ;
#381 = EDGE_CURVE ( 'NONE', #123, #350, #667, .T. ) ;
#382 = AXIS2_PLACEMENT_3D ( 'NONE', #651, #69, #337 ) ;
#383 = CC_DESIGN_DATE_AND_TIME_ASSIGNMENT ( #612, #104, ( #635 ) ) ;
#384 = VERTEX_POINT ( 'NONE', #274 ) ;
#385 = EDGE_LOOP ( 'NONE', ( #55, #613, #814, #260 ) ) ;
#386 = AXIS2_PLACEMENT_3D ( 'NONE', #740, #34, #604 ) ;
#387 = VERTEX_POINT ( 'NONE', #461 ) ;
#388 = CARTESIAN_POINT ( 'NONE',  ( -37.99999999999999289, 9.500000000000000000, -7.863116217959562905E-16 ) ) ;
#389 = ORIENTED_EDGE ( 'NONE', *, *, #502, .F. ) ;
#390 = EDGE_CURVE ( 'NONE', #572, #698, #140, .T. ) ;
#391 = CARTESIAN_POINT ( 'NONE',  ( -97.87379544349361993, 15.00000000000000000, -14.87379544349360927 ) ) ;
#392 = AXIS2_PLACEMENT_3D ( 'NONE', #546, #309, #755 ) ;
#393 = ORIENTED_EDGE ( 'NONE', *, *, #823, .T. ) ;
#394 = FACE_OUTER_BOUND ( 'NONE', #593, .T. ) ;
#395 = CARTESIAN_POINT ( 'NONE',  ( -93.00000000000001421, 15.00000000000000000, 14.87379544349360927 ) ) ;
#396 = ORIENTED_EDGE ( 'NONE', *, *, #248, .T. ) ;
#397 = CARTESIAN_POINT ( 'NONE',  ( -88.49999999999998579, 4.000000000000000000, 6.500000000000000000 ) ) ;
#398 = CARTESIAN_POINT ( 'NONE',  ( 38.00000000000000711, 9.500000000000000000, 2.750000000000002665 ) ) ;
#399 = AXIS2_PLACEMENT_3D ( 'NONE', #806, #228, #674 ) ;
#400 = EDGE_CURVE ( 'NONE', #387, #210, #816, .T. ) ;
#401 = VERTEX_POINT ( 'NONE', #348 ) ;
#402 = DIRECTION ( 'NONE',  ( 0.000000000000000000, 0.000000000000000000, -1.000000000000000000 ) ) ;
#403 = DATE_AND_TIME ( #141, #204 ) ;
#404 = PRODUCT ( '\X2\5e955ea7\X0\', '\X2\5e955ea7\X0\', '', ( #296 ) ) ;
#405 = VERTEX_POINT ( 'NONE', #12 ) ;
#406 = ADVANCED_FACE ( 'NONE', ( #600 ), #533, .F. ) ;
#407 = LINE ( 'NONE', #658, #415 ) ;
#408 = DIRECTION ( 'NONE',  ( 0.000000000000000000, 0.000000000000000000, -1.000000000000000000 ) ) ;
#409 = ORIENTED_EDGE ( 'NONE', *, *, #106, .F. ) ;
#410 = FACE_BOUND ( 'NONE', #637, .T. ) ;
#411 = LINE ( 'NONE', #610, #343 ) ;
#412 = AXIS2_PLACEMENT_3D ( 'NONE', #524, #590, #784 ) ;
#413 = EDGE_CURVE ( 'NONE', #210, #387, #448, .T. ) ;
#414 = CARTESIAN_POINT ( 'NONE',  ( -93.00000000000001421, 0.000000000000000000, -10.00000000000000000 ) ) ;
#415 = VECTOR ( 'NONE', #80, 1000.000000000000000 ) ;
#416 = ORIENTED_EDGE ( 'NONE', *, *, #608, .F. ) ;
#417 = DIRECTION ( 'NONE',  ( 0.000000000000000000, 0.000000000000000000, -1.000000000000000000 ) ) ;
#418 = CARTESIAN_POINT ( 'NONE',  ( 0.000000000000000000, 0.000000000000000000, 0.000000000000000000 ) ) ;
#419 = CIRCLE ( 'NONE', #399, 2.750000000000001776 ) ;
#420 = CARTESIAN_POINT ( 'NONE',  ( -88.49999999999998579, 0.000000000000000000, -6.500000000000000000 ) ) ;
#421 = ORIENTED_EDGE ( 'NONE', *, *, #7, .F. ) ;
#422 = DIRECTION ( 'NONE',  ( -1.000000000000000000, 0.000000000000000000, -0.000000000000000000 ) ) ;
#423 = CARTESIAN_POINT ( 'NONE',  ( -37.99999999999999289, 9.500000000000000000, -7.863116217959562905E-16 ) ) ;
#424 = AXIS2_PLACEMENT_3D ( 'NONE', #95, #526, #26 ) ;
#425 = CARTESIAN_POINT ( 'NONE',  ( 93.00000000000002842, 13.00000000000000000, -10.00000000000000000 ) ) ;
#426 = FACE_OUTER_BOUND ( 'NONE', #165, .T. ) ;
#427 = CARTESIAN_POINT ( 'NONE',  ( -37.99999999999999289, 4.000000000000000000, -7.863116217959562905E-16 ) ) ;
#428 = PERSON_AND_ORGANIZATION ( #131, #581 ) ;
#429 = ORIENTED_EDGE ( 'NONE', *, *, #74, .T. ) ;
#430 = ADVANCED_FACE ( 'NONE', ( #88 ), #717, .F. ) ;
#431 = CARTESIAN_POINT ( 'NONE',  ( -88.49999999999998579, 0.000000000000000000, -6.500000000000000000 ) ) ;
#432 = CARTESIAN_POINT ( 'NONE',  ( 92.99999999999998579, 0.000000000000000000, -10.00000000000000000 ) ) ;
#433 = LINE ( 'NONE', #241, #269 ) ;
#434 = FACE_OUTER_BOUND ( 'NONE', #313, .T. ) ;
#435 = DIRECTION ( 'NONE',  ( 1.000000000000000000, 0.000000000000000000, 0.000000000000000000 ) ) ;
#436 = DIRECTION ( 'NONE',  ( 0.000000000000000000, 0.000000000000000000, -1.000000000000000000 ) ) ;
#437 = VERTEX_POINT ( 'NONE', #648 ) ;
#438 = FACE_OUTER_BOUND ( 'NONE', #805, .T. ) ;
#439 = EDGE_CURVE ( 'NONE', #442, #710, #64, .T. ) ;
#440 = VERTEX_POINT ( 'NONE', #520 ) ;
#441 = VECTOR ( 'NONE', #800, 1000.000000000000000 ) ;
#442 = VERTEX_POINT ( 'NONE', #202 ) ;
#443 = EDGE_LOOP ( 'NONE', ( #822, #643, #227, #647 ) ) ;
#444 = VECTOR ( 'NONE', #777, 1000.000000000000000 ) ;
#445 = ORIENTED_EDGE ( 'NONE', *, *, #789, .F. ) ;
#446 = CC_DESIGN_APPROVAL ( #646, ( #50 ) ) ;
#447 = CARTESIAN_POINT ( 'NONE',  ( 0.000000000000000000, 13.00000000000000000, 0.000000000000000000 ) ) ;
#448 = CIRCLE ( 'NONE', #295, 2.750000000000001776 ) ;
#449 = EDGE_CURVE ( 'NONE', #664, #521, #194, .T. ) ;
#450 = DIRECTION ( 'NONE',  ( 0.000000000000000000, -0.9510565162951533091, -0.3090169943749481729 ) ) ;
#451 = ORIENTED_EDGE ( 'NONE', *, *, #457, .T. ) ;
#452 = PLANE ( 'NONE',  #778 ) ;
#453 = CARTESIAN_POINT ( 'NONE',  ( 97.87379544349359151, 15.00000000000000000, 14.87379544349360927 ) ) ;
#454 = VECTOR ( 'NONE', #435, 1000.000000000000000 ) ;
#455 = ORIENTED_EDGE ( 'NONE', *, *, #346, .T. ) ;
#456 = DIRECTION ( 'NONE',  ( 0.000000000000000000, 1.000000000000000000, 0.000000000000000000 ) ) ;
#457 = EDGE_CURVE ( 'NONE', #111, #305, #77, .T. ) ;
#458 = LINE ( 'NONE', #71, #152 ) ;
#459 = PERSON_AND_ORGANIZATION_ROLE ( 'design_owner' ) ;
#460 = ORIENTED_EDGE ( 'NONE', *, *, #636, .T. ) ;
#461 = CARTESIAN_POINT ( 'NONE',  ( -37.99999999999999289, 9.500000000000000000, 2.750000000000000888 ) ) ;
#462 = EDGE_CURVE ( 'NONE', #387, #53, #458, .T. ) ;
#463 = ORIENTED_EDGE ( 'NONE', *, *, #310, .T. ) ;
#464 = CARTESIAN_POINT ( 'NONE',  ( -88.49999999999998579, 4.000000000000000000, 6.500000000000000000 ) ) ;
#465 = VECTOR ( 'NONE', #233, 1000.000000000000000 ) ;
#466 =( LENGTH_UNIT ( ) NAMED_UNIT ( * ) SI_UNIT ( .MILLI., .METRE. ) );
#467 = ORIENTED_EDGE ( 'NONE', *, *, #519, .T. ) ;
#468 = FACE_BOUND ( 'NONE', #354, .T. ) ;
#469 = CC_DESIGN_PERSON_AND_ORGANIZATION_ASSIGNMENT ( #677, #742, ( #661 ) ) ;
#470 = LINE ( 'NONE', #599, #471 ) ;
#471 = VECTOR ( 'NONE', #40, 1000.000000000000000 ) ;
#472 = DIRECTION ( 'NONE',  ( 1.000000000000000000, -0.000000000000000000, -0.000000000000000000 ) ) ;
#473 = DIRECTION ( 'NONE',  ( 0.000000000000000000, -0.000000000000000000, -1.000000000000000000 ) ) ;
#474 = VERTEX_POINT ( 'NONE', #797 ) ;
#475 = FACE_OUTER_BOUND ( 'NONE', #1, .T. ) ;
#476 = VECTOR ( 'NONE', #483, 1000.000000000000000 ) ;
#477 = DIRECTION ( 'NONE',  ( 0.000000000000000000, 0.000000000000000000, -1.000000000000000000 ) ) ;
#478 = CARTESIAN_POINT ( 'NONE',  ( -93.00000000000001421, 0.000000000000000000, 10.00000000000000000 ) ) ;
#479 = EDGE_LOOP ( 'NONE', ( #738, #38, #99, #333 ) ) ;
#480 = FACE_OUTER_BOUND ( 'NONE', #73, .T. ) ;
#481 = CARTESIAN_POINT ( 'NONE',  ( 93.00000000000002842, 13.00000000000000000, -10.00000000000000000 ) ) ;
#482 = AXIS2_PLACEMENT_3D ( 'NONE', #496, #195, #450 ) ;
#483 = DIRECTION ( 'NONE',  ( -0.000000000000000000, -0.000000000000000000, 1.000000000000000000 ) ) ;
#484 = CALENDAR_DATE ( 2026, 4, 6 ) ;
#485 = ORIENTED_EDGE ( 'NONE', *, *, #87, .F. ) ;
#486 = DIRECTION ( 'NONE',  ( 1.000000000000000000, 0.000000000000000000, -0.000000000000000000 ) ) ;
#487 = CARTESIAN_POINT ( 'NONE',  ( -92.99999999999997158, 13.00000000000000000, 10.00000000000000000 ) ) ;
#488 = FACE_OUTER_BOUND ( 'NONE', #820, .T. ) ;
#489 = EDGE_CURVE ( 'NONE', #384, #345, #583, .T. ) ;
#490 = AXIS2_PLACEMENT_3D ( 'NONE', #16, #544, #422 ) ;
#491 = ORIENTED_EDGE ( 'NONE', *, *, #113, .T. ) ;
#492 = CARTESIAN_POINT ( 'NONE',  ( -93.00000000000001421, 0.000000000000000000, -10.00000000000000000 ) ) ;
#493 = DIRECTION ( 'NONE',  ( 0.000000000000000000, -1.000000000000000000, 0.000000000000000000 ) ) ;
#494 = APPROVAL_DATE_TIME ( #403, #763 ) ;
#495 = ADVANCED_FACE ( 'NONE', ( #662 ), #342, .F. ) ;
#496 = CARTESIAN_POINT ( 'NONE',  ( -93.00000000000001421, 0.000000000000000000, 10.00000000000000000 ) ) ;
#497 = VERTEX_POINT ( 'NONE', #218 ) ;
#498 = DIRECTION ( 'NONE',  ( -0.000000000000000000, -0.000000000000000000, -1.000000000000000000 ) ) ;
#499 = CARTESIAN_POINT ( 'NONE',  ( -88.49999999999998579, 4.000000000000000000, 6.500000000000000000 ) ) ;
#500 = AXIS2_PLACEMENT_3D ( 'NONE', #344, #790, #473 ) ;
#501 = VERTEX_POINT ( 'NONE', #728 ) ;
#502 = EDGE_CURVE ( 'NONE', #305, #186, #151, .T. ) ;
#503 = VECTOR ( 'NONE', #247, 1000.000000000000000 ) ;
#504 = CARTESIAN_POINT ( 'NONE',  ( 93.00000000000002842, 13.00000000000000000, -10.00000000000000000 ) ) ;
#505 = VERTEX_POINT ( 'NONE', #93 ) ;
#506 = ORIENTED_EDGE ( 'NONE', *, *, #322, .F. ) ;
#507 = EDGE_LOOP ( 'NONE', ( #607, #506, #682, #249 ) ) ;
#508 = AXIS2_PLACEMENT_3D ( 'NONE', #792, #215, #417 ) ;
#509 = ORIENTED_EDGE ( 'NONE', *, *, #122, .F. ) ;
#510 = ORIENTED_EDGE ( 'NONE', *, *, #672, .F. ) ;
#511 = CARTESIAN_POINT ( 'NONE',  ( -92.99999999999997158, 15.00000000000000000, 10.00000000000000000 ) ) ;
#512 = EDGE_CURVE ( 'NONE', #305, #123, #626, .T. ) ;
#513 = PLANE ( 'NONE',  #235 ) ;
#514 = AXIS2_PLACEMENT_3D ( 'NONE', #8, #211, #540 ) ;
#515 = EDGE_LOOP ( 'NONE', ( #297, #571 ) ) ;
#516 = VECTOR ( 'NONE', #532, 1000.000000000000114 ) ;
#517 = CARTESIAN_POINT ( 'NONE',  ( 97.87379544349359151, 15.00000000000000000, -10.00000000000000000 ) ) ;
#518 = CARTESIAN_POINT ( 'NONE',  ( 38.00000000000000711, 9.500000000000000000, 9.107465338243180839E-16 ) ) ;
#519 = EDGE_CURVE ( 'NONE', #186, #251, #433, .T. ) ;
#520 = CARTESIAN_POINT ( 'NONE',  ( 93.00000000000002842, 13.00000000000000000, 10.00000000000000000 ) ) ;
#521 = VERTEX_POINT ( 'NONE', #553 ) ;
#522 = DIRECTION ( 'NONE',  ( 0.000000000000000000, 0.000000000000000000, 1.000000000000000000 ) ) ;
#523 = EDGE_CURVE ( 'NONE', #554, #497, #24, .T. ) ;
#524 = CARTESIAN_POINT ( 'NONE',  ( -72.00000000000000000, 4.000000000000000000, -1.267080867070670108E-16 ) ) ;
#525 = APPROVAL_STATUS ( 'not_yet_approved' ) ;
#526 = DIRECTION ( 'NONE',  ( 0.000000000000000000, 0.000000000000000000, 1.000000000000000000 ) ) ;
#527 = ORIENTED_EDGE ( 'NONE', *, *, #523, .T. ) ;
#528 = CARTESIAN_POINT ( 'NONE',  ( -37.99999999999999289, 4.000000000000000000, 2.750000000000000888 ) ) ;
#529 = DIRECTION ( 'NONE',  ( -1.000000000000000000, 0.000000000000000000, 0.000000000000000000 ) ) ;
#530 = APPROVAL_DATE_TIME ( #224, #646 ) ;
#531 = EDGE_LOOP ( 'NONE', ( #638, #192, #809, #463 ) ) ;
#532 = DIRECTION ( 'NONE',  ( -0.2952418088443268807, -0.9086608545660256331, -0.2952418088443269362 ) ) ;
#533 = PLANE ( 'NONE',  #649 ) ;
#534 = PERSON_AND_ORGANIZATION_ROLE ( 'creator' ) ;
#535 = DIRECTION ( 'NONE',  ( 0.3090169943749481174, 0.9510565162951533091, 0.000000000000000000 ) ) ;
#536 = ADVANCED_FACE ( 'NONE', ( #316 ), #43, .F. ) ;
#537 = ORIENTED_EDGE ( 'NONE', *, *, #595, .F. ) ;
#538 = DIRECTION ( 'NONE',  ( 0.000000000000000000, -1.000000000000000000, 0.000000000000000000 ) ) ;
#539 = LINE ( 'NONE', #487, #22 ) ;
#540 = DIRECTION ( 'NONE',  ( 0.000000000000000000, 0.000000000000000000, -1.000000000000000000 ) ) ;
#541 = COORDINATED_UNIVERSAL_TIME_OFFSET ( 8, 0, .AHEAD. ) ;
#542 = ORIENTED_EDGE ( 'NONE', *, *, #785, .T. ) ;
#543 = CARTESIAN_POINT ( 'NONE',  ( -88.49999999999998579, 4.000000000000000000, 6.500000000000000000 ) ) ;
#544 = DIRECTION ( 'NONE',  ( 0.000000000000000000, 0.000000000000000000, -1.000000000000000000 ) ) ;
#545 = VECTOR ( 'NONE', #472, 1000.000000000000000 ) ;
#546 = CARTESIAN_POINT ( 'NONE',  ( 38.00000000000000711, 9.500000000000000000, 9.107465338243180839E-16 ) ) ;
#547 = AXIS2_PLACEMENT_3D ( 'NONE', #425, #486, #744 ) ;
#548 = EDGE_LOOP ( 'NONE', ( #657, #90, #320, #772 ) ) ;
#549 = DIRECTION ( 'NONE',  ( 0.000000000000000000, 0.000000000000000000, -1.000000000000000000 ) ) ;
#550 = LINE ( 'NONE', #807, #560 ) ;
#551 = EDGE_CURVE ( 'NONE', #521, #664, #127, .T. ) ;
#552 = ADVANCED_FACE ( 'NONE', ( #736 ), #168, .F. ) ;
#553 = CARTESIAN_POINT ( 'NONE',  ( -72.00000000000000000, 9.500000000000000000, -2.750000000000008438 ) ) ;
#554 = VERTEX_POINT ( 'NONE', #741 ) ;
#555 = CARTESIAN_POINT ( 'NONE',  ( -92.99999999999997158, 13.00000000000000000, -10.00000000000000000 ) ) ;
#556 = FACE_OUTER_BOUND ( 'NONE', #531, .T. ) ;
#557 = ADVANCED_FACE ( 'NONE', ( #621 ), #817, .F. ) ;
#558 = CARTESIAN_POINT ( 'NONE',  ( -97.87379544349361993, 15.00000000000000000, -10.00000000000000000 ) ) ;
#559 = LOCAL_TIME ( 15, 8, 30.00000000000000000, #541 ) ;
#560 = VECTOR ( 'NONE', #355, 1000.000000000000000 ) ;
#561 = ORIENTED_EDGE ( 'NONE', *, *, #575, .T. ) ;
#562 = LINE ( 'NONE', #39, #335 ) ;
#563 = FACE_OUTER_BOUND ( 'NONE', #279, .T. ) ;
#564 = AXIS2_PLACEMENT_3D ( 'NONE', #65, #402, #223 ) ;
#565 = DIRECTION ( 'NONE',  ( 0.000000000000000000, 0.000000000000000000, 1.000000000000000000 ) ) ;
#566 = EDGE_CURVE ( 'NONE', #401, #554, #300, .T. ) ;
#567 = CYLINDRICAL_SURFACE ( 'NONE', #315, 2.750000000000008438 ) ;
#568 = AXIS2_PLACEMENT_3D ( 'NONE', #683, #148, #549 ) ;
#569 = ORIENTED_EDGE ( 'NONE', *, *, #566, .T. ) ;
#570 = CARTESIAN_POINT ( 'NONE',  ( 72.00000000000000000, 4.000000000000000000, 7.692121724891537867E-16 ) ) ;
#571 = ORIENTED_EDGE ( 'NONE', *, *, #113, .F. ) ;
#572 = VERTEX_POINT ( 'NONE', #611 ) ;
#573 = ORIENTED_EDGE ( 'NONE', *, *, #595, .T. ) ;
#574 = ORIENTED_EDGE ( 'NONE', *, *, #3, .F. ) ;
#575 = EDGE_CURVE ( 'NONE', #345, #84, #252, .T. ) ;
#576 = DIRECTION ( 'NONE',  ( 0.000000000000000000, -0.000000000000000000, -1.000000000000000000 ) ) ;
#577 = CARTESIAN_POINT ( 'NONE',  ( 72.00000000000000000, 4.000000000000000000, 2.750000000000009326 ) ) ;
#578 = DIRECTION ( 'NONE',  ( -0.000000000000000000, -1.000000000000000000, -0.000000000000000000 ) ) ;
#579 = VERTEX_POINT ( 'NONE', #420 ) ;
#580 = CARTESIAN_POINT ( 'NONE',  ( 38.00000000000000711, 9.500000000000000000, 2.750000000000002665 ) ) ;
#581 = ORGANIZATION ( '未指定', '未指定', '' ) ;
#582 = CARTESIAN_POINT ( 'NONE',  ( 76.78680302172136862, -49.89908942502756872, 6.213196978278626936 ) ) ;
#583 = CIRCLE ( 'NONE', #835, 2.750000000000008438 ) ;
#584 = CC_DESIGN_PERSON_AND_ORGANIZATION_ASSIGNMENT ( #372, #169, ( #635 ) ) ;
#585 = ORIENTED_EDGE ( 'NONE', *, *, #101, .F. ) ;
#586 = AXIS2_PLACEMENT_3D ( 'NONE', #447, #254, #56 ) ;
#587 = CARTESIAN_POINT ( 'NONE',  ( 38.00000000000000711, 9.500000000000000000, -2.750000000000000888 ) ) ;
#588 = AXIS2_PLACEMENT_3D ( 'NONE', #518, #331, #129 ) ;
#589 = ORIENTED_EDGE ( 'NONE', *, *, #390, .F. ) ;
#590 = DIRECTION ( 'NONE',  ( 0.000000000000000000, -1.000000000000000000, 0.000000000000000000 ) ) ;
#591 = CARTESIAN_POINT ( 'NONE',  ( 92.99999999999998579, 0.000000000000000000, 10.00000000000000000 ) ) ;
#592 = DIRECTION ( 'NONE',  ( 0.000000000000000000, 0.000000000000000000, 1.000000000000000000 ) ) ;
#593 = EDGE_LOOP ( 'NONE', ( #396, #451, #205, #318 ) ) ;
#594 = LINE ( 'NONE', #28, #516 ) ;
#595 = EDGE_CURVE ( 'NONE', #505, #687, #173, .T. ) ;
#596 = LINE ( 'NONE', #653, #701 ) ;
#597 = VERTEX_POINT ( 'NONE', #689 ) ;
#598 = CARTESIAN_POINT ( 'NONE',  ( -92.99999999999997158, 13.00000000000000000, -10.00000000000000000 ) ) ;
#599 = CARTESIAN_POINT ( 'NONE',  ( -72.00000000000000000, 9.500000000000000000, 2.750000000000008438 ) ) ;
#600 = FACE_OUTER_BOUND ( 'NONE', #668, .T. ) ;
#601 = AXIS2_PLACEMENT_3D ( 'NONE', #570, #103, #670 ) ;
#602 = ORIENTED_EDGE ( 'NONE', *, *, #213, .T. ) ;
#603 = CARTESIAN_POINT ( 'NONE',  ( 38.00000000000000711, 4.000000000000000000, 9.107465338243180839E-16 ) ) ;
#604 = DIRECTION ( 'NONE',  ( 0.000000000000000000, 0.000000000000000000, -1.000000000000000000 ) ) ;
#605 = LINE ( 'NONE', #802, #465 ) ;
#606 = LOCAL_TIME ( 15, 8, 30.00000000000000000, #25 ) ;
#607 = ORIENTED_EDGE ( 'NONE', *, *, #566, .F. ) ;
#608 = EDGE_CURVE ( 'NONE', #84, #597, #76, .T. ) ;
#609 = FACE_OUTER_BOUND ( 'NONE', #327, .T. ) ;
#610 = CARTESIAN_POINT ( 'NONE',  ( -37.99999999999999289, 9.500000000000000000, -2.750000000000002665 ) ) ;
#611 = CARTESIAN_POINT ( 'NONE',  ( 38.00000000000000711, 9.500000000000000000, -2.750000000000000888 ) ) ;
#612 = DATE_AND_TIME ( #242, #606 ) ;
#613 = ORIENTED_EDGE ( 'NONE', *, *, #258, .F. ) ;
#614 = PLANE ( 'NONE',  #155 ) ;
#615 = ADVANCED_FACE ( 'NONE', ( #488 ), #746, .T. ) ;
#616 = CYLINDRICAL_SURFACE ( 'NONE', #386, 2.750000000000008438 ) ;
#617 = CARTESIAN_POINT ( 'NONE',  ( -88.49999999999998579, 4.000000000000000000, 6.500000000000000000 ) ) ;
#618 = VERTEX_POINT ( 'NONE', #48 ) ;
#619 = FACE_OUTER_BOUND ( 'NONE', #142, .T. ) ;
#620 = DIRECTION ( 'NONE',  ( 0.000000000000000000, 0.9510565162951533091, -0.3090169943749481729 ) ) ;
#621 = FACE_OUTER_BOUND ( 'NONE', #782, .T. ) ;
#622 = APPROVAL_DATE_TIME ( #94, #771 ) ;
#623 = CC_DESIGN_APPROVAL ( #771, ( #635 ) ) ;
#624 = DIRECTION ( 'NONE',  ( 0.000000000000000000, -1.000000000000000000, 0.000000000000000000 ) ) ;
#625 = VECTOR ( 'NONE', #360, 1000.000000000000114 ) ;
#626 = LINE ( 'NONE', #558, #476 ) ;
#627 = EDGE_CURVE ( 'NONE', #357, #53, #369, .T. ) ;
#628 = ORIENTED_EDGE ( 'NONE', *, *, #390, .T. ) ;
#629 = FACE_OUTER_BOUND ( 'NONE', #275, .T. ) ;
#630 = VECTOR ( 'NONE', #45, 1000.000000000000000 ) ;
#631 = ORIENTED_EDGE ( 'NONE', *, *, #100, .T. ) ;
#632 = AXIS2_PLACEMENT_3D ( 'NONE', #836, #624, #815 ) ;
#633 = ADVANCED_BREP_SHAPE_REPRESENTATION ( '\X2\5e955ea7\X0\', ( #294, #424 ), #727 ) ;
#634 = ORIENTED_EDGE ( 'NONE', *, *, #627, .T. ) ;
#635 = SECURITY_CLASSIFICATION ( '', '', #31 ) ;
#636 = EDGE_CURVE ( 'NONE', #405, #474, #605, .T. ) ;
#637 = EDGE_LOOP ( 'NONE', ( #188, #416 ) ) ;
#638 = ORIENTED_EDGE ( 'NONE', *, *, #322, .T. ) ;
#639 = ADVANCED_FACE ( 'NONE', ( #681 ), #364, .F. ) ;
#640 = ORIENTED_EDGE ( 'NONE', *, *, #551, .T. ) ;
#641 = EDGE_CURVE ( 'NONE', #440, #201, #256, .T. ) ;
#642 = DIRECTION ( 'NONE',  ( -0.000000000000000000, -1.000000000000000000, -0.000000000000000000 ) ) ;
#643 = ORIENTED_EDGE ( 'NONE', *, *, #310, .F. ) ;
#644 = FACE_OUTER_BOUND ( 'NONE', #650, .T. ) ;
#645 = LINE ( 'NONE', #499, #49 ) ;
#646 = APPROVAL ( #137, '未指定' ) ;
#647 = ORIENTED_EDGE ( 'NONE', *, *, #122, .T. ) ;
#648 = CARTESIAN_POINT ( 'NONE',  ( -92.99999999999997158, 13.00000000000000000, -10.00000000000000000 ) ) ;
#649 = AXIS2_PLACEMENT_3D ( 'NONE', #464, #529, #130 ) ;
#650 = EDGE_LOOP ( 'NONE', ( #421, #794, #628, #631 ) ) ;
#651 = CARTESIAN_POINT ( 'NONE',  ( 38.00000000000000711, 9.500000000000000000, 9.107465338243180839E-16 ) ) ;
#652 = AXIS2_PLACEMENT_3D ( 'NONE', #603, #733, #221 ) ;
#653 = CARTESIAN_POINT ( 'NONE',  ( 93.00000000000002842, 13.00000000000000000, 10.00000000000000000 ) ) ;
#654 = EDGE_LOOP ( 'NONE', ( #693, #706, #153, #324 ) ) ;
#655 = CARTESIAN_POINT ( 'NONE',  ( -92.99999999999997158, 15.00000000000000000, -10.00000000000000000 ) ) ;
#656 = DIRECTION ( 'NONE',  ( 0.000000000000000000, -1.000000000000000000, 0.000000000000000000 ) ) ;
#657 = ORIENTED_EDGE ( 'NONE', *, *, #262, .T. ) ;
#658 = CARTESIAN_POINT ( 'NONE',  ( -88.49999999999998579, 0.000000000000000000, 6.500000000000000000 ) ) ;
#659 = ADVANCED_FACE ( 'NONE', ( #438 ), #758, .T. ) ;
#660 = AXIS2_PLACEMENT_3D ( 'NONE', #675, #102, #107 ) ;
#661 = PRODUCT_DEFINITION_FORMATION_WITH_SPECIFIED_SOURCE ( '任何', '', #404, .NOT_KNOWN. ) ;
#662 = FACE_OUTER_BOUND ( 'NONE', #443, .T. ) ;
#663 = LINE ( 'NONE', #209, #147 ) ;
#664 = VERTEX_POINT ( 'NONE', #726 ) ;
#665 = LINE ( 'NONE', #154, #694 ) ;
#666 = FACE_OUTER_BOUND ( 'NONE', #766, .T. ) ;
#667 = LINE ( 'NONE', #395, #545 ) ;
#668 = EDGE_LOOP ( 'NONE', ( #429, #715, #272, #282 ) ) ;
#669 = DIRECTION ( 'NONE',  ( 0.000000000000000000, -0.3090169943749482284, -0.9510565162951534202 ) ) ;
#670 = DIRECTION ( 'NONE',  ( 0.000000000000000000, 0.000000000000000000, -1.000000000000000000 ) ) ;
#671 = EDGE_CURVE ( 'NONE', #474, #618, #308, .T. ) ;
#672 = EDGE_CURVE ( 'NONE', #379, #474, #29, .T. ) ;
#673 = VERTEX_POINT ( 'NONE', #432 ) ;
#674 = DIRECTION ( 'NONE',  ( 0.000000000000000000, 0.000000000000000000, -1.000000000000000000 ) ) ;
#675 = CARTESIAN_POINT ( 'NONE',  ( 72.00000000000000000, 4.000000000000000000, 7.692121724891537867E-16 ) ) ;
#676 = CARTESIAN_POINT ( 'NONE',  ( 93.00000000000002842, 15.00000000000000000, -10.00000000000000000 ) ) ;
#677 = PERSON_AND_ORGANIZATION ( #131, #581 ) ;
#678 = ORIENTED_EDGE ( 'NONE', *, *, #400, .F. ) ;
#679 = LINE ( 'NONE', #555, #70 ) ;
#680 = DIRECTION ( 'NONE',  ( -1.000000000000000000, -0.000000000000000000, -0.000000000000000000 ) ) ;
#681 = FACE_OUTER_BOUND ( 'NONE', #743, .T. ) ;
#682 = ORIENTED_EDGE ( 'NONE', *, *, #67, .F. ) ;
#683 = CARTESIAN_POINT ( 'NONE',  ( 38.00000000000000711, 9.500000000000000000, 9.107465338243180839E-16 ) ) ;
#684 = CARTESIAN_POINT ( 'NONE',  ( 72.00000000000000000, 9.500000000000000000, 7.692121724891537867E-16 ) ) ;
#685 = AXIS2_PLACEMENT_3D ( 'NONE', #181, #669, #620 ) ;
#686 = CARTESIAN_POINT ( 'NONE',  ( 72.00000000000000000, 9.500000000000000000, 7.692121724891537867E-16 ) ) ;
#687 = VERTEX_POINT ( 'NONE', #167 ) ;
#688 = EDGE_CURVE ( 'NONE', #597, #84, #329, .T. ) ;
#689 = CARTESIAN_POINT ( 'NONE',  ( 72.00000000000000000, 4.000000000000000000, -2.750000000000007550 ) ) ;
#690 = DIRECTION ( 'NONE',  ( -0.000000000000000000, 1.000000000000000000, -0.000000000000000000 ) ) ;
#691 = ORIENTED_EDGE ( 'NONE', *, *, #439, .F. ) ;
#692 = DIRECTION ( 'NONE',  ( -0.000000000000000000, -0.000000000000000000, -1.000000000000000000 ) ) ;
#693 = ORIENTED_EDGE ( 'NONE', *, *, #575, .F. ) ;
#694 = VECTOR ( 'NONE', #11, 1000.000000000000000 ) ;
#695 = ADVANCED_FACE ( 'NONE', ( #563 ), #363, .F. ) ;
#696 = AXIS2_PLACEMENT_3D ( 'NONE', #371, #30, #751 ) ;
#697 = CLOSED_SHELL ( 'NONE', ( #704, #536, #557, #695, #813, #659, #767, #341, #42, #775, #176, #719, #495, #762, #240, #57, #430, #406, #639, #121, #552, #795, #13, #319, #170, #267, #231, #615 ) ) ;
#698 = VERTEX_POINT ( 'NONE', #299 ) ;
#699 = LOCAL_TIME ( 15, 8, 30.00000000000000000, #729 ) ;
#700 = ORIENTED_EDGE ( 'NONE', *, *, #439, .T. ) ;
#701 = VECTOR ( 'NONE', #207, 1000.000000000000000 ) ;
#702 = CARTESIAN_POINT ( 'NONE',  ( 92.99999999999998579, 0.000000000000000000, -10.00000000000000000 ) ) ;
#703 = LINE ( 'NONE', #580, #768 ) ;
#704 = ADVANCED_FACE ( 'NONE', ( #666 ), #616, .F. ) ;
#705 = CARTESIAN_POINT ( 'NONE',  ( 72.00000000000000000, 9.500000000000000000, 2.750000000000009326 ) ) ;
#706 = ORIENTED_EDGE ( 'NONE', *, *, #489, .F. ) ;
#707 = CARTESIAN_POINT ( 'NONE',  ( 0.000000000000000000, 15.00000000000000000, 0.000000000000000000 ) ) ;
#708 = VECTOR ( 'NONE', #86, 1000.000000000000000 ) ;
#709 = DIRECTION ( 'NONE',  ( -1.000000000000000000, 0.000000000000000000, 0.000000000000000000 ) ) ;
#710 = VERTEX_POINT ( 'NONE', #222 ) ;
#711 = FACE_OUTER_BOUND ( 'NONE', #378, .T. ) ;
#712 = DIRECTION ( 'NONE',  ( 0.000000000000000000, -1.000000000000000000, 0.000000000000000000 ) ) ;
#713 = CALENDAR_DATE ( 2026, 4, 6 ) ;
#714 = PERSON_AND_ORGANIZATION ( #131, #581 ) ;
#715 = ORIENTED_EDGE ( 'NONE', *, *, #281, .F. ) ;
#716 = ORIENTED_EDGE ( 'NONE', *, *, #462, .T. ) ;
#717 = PLANE ( 'NONE',  #564 ) ;
#718 = COORDINATED_UNIVERSAL_TIME_OFFSET ( 8, 0, .AHEAD. ) ;
#719 = ADVANCED_FACE ( 'NONE', ( #556 ), #161, .F. ) ;
#720 = ORIENTED_EDGE ( 'NONE', *, *, #381, .F. ) ;
#721 = AXIS2_PLACEMENT_3D ( 'NONE', #423, #812, #177 ) ;
#722 = DIRECTION ( 'NONE',  ( -1.000000000000000000, -0.000000000000000000, -0.000000000000000000 ) ) ;
#723 = ORIENTED_EDGE ( 'NONE', *, *, #281, .T. ) ;
#724 = EDGE_CURVE ( 'NONE', #664, #442, #470, .T. ) ;
#725 = CARTESIAN_POINT ( 'NONE',  ( 0.000000000000000000, 4.000000000000000000, 0.000000000000000000 ) ) ;
#726 = CARTESIAN_POINT ( 'NONE',  ( -72.00000000000000000, 9.500000000000000000, 2.750000000000008438 ) ) ;
#727 =( GEOMETRIC_REPRESENTATION_CONTEXT ( 3 ) GLOBAL_UNCERTAINTY_ASSIGNED_CONTEXT ( ( #83 ) ) GLOBAL_UNIT_ASSIGNED_CONTEXT ( ( #466, #145, #798 ) ) REPRESENTATION_CONTEXT ( 'NONE', 'WORKASPACE' ) );
#728 = CARTESIAN_POINT ( 'NONE',  ( 38.00000000000000711, 4.000000000000000000, 2.750000000000002665 ) ) ;
#729 = COORDINATED_UNIVERSAL_TIME_OFFSET ( 8, 0, .AHEAD. ) ;
#730 = CARTESIAN_POINT ( 'NONE',  ( 92.99999999999998579, 0.000000000000000000, -10.00000000000000000 ) ) ;
#731 = ORIENTED_EDGE ( 'NONE', *, *, #671, .T. ) ;
#732 = AXIS2_PLACEMENT_3D ( 'NONE', #779, #126, #200 ) ;
#733 = DIRECTION ( 'NONE',  ( 0.000000000000000000, -1.000000000000000000, 0.000000000000000000 ) ) ;
#734 = DIRECTION ( 'NONE',  ( -0.9510565162951534202, -0.3090169943749481729, 0.000000000000000000 ) ) ;
#735 = CC_DESIGN_PERSON_AND_ORGANIZATION_ASSIGNMENT ( #19, #534, ( #50 ) ) ;
#736 = FACE_OUTER_BOUND ( 'NONE', #654, .T. ) ;
#737 = VECTOR ( 'NONE', #362, 1000.000000000000000 ) ;
#738 = ORIENTED_EDGE ( 'NONE', *, *, #641, .T. ) ;
#739 = DIRECTION ( 'NONE',  ( -0.000000000000000000, -1.000000000000000000, -0.000000000000000000 ) ) ;
#740 = CARTESIAN_POINT ( 'NONE',  ( -72.00000000000000000, 9.500000000000000000, -1.267080867070670108E-16 ) ) ;
#741 = CARTESIAN_POINT ( 'NONE',  ( 93.00000000000002842, 15.00000000000000000, -10.00000000000000000 ) ) ;
#742 = PERSON_AND_ORGANIZATION_ROLE ( 'creator' ) ;
#743 = EDGE_LOOP ( 'NONE', ( #731, #124, #10, #460 ) ) ;
#744 = DIRECTION ( 'NONE',  ( -0.000000000000000000, 0.000000000000000000, -1.000000000000000000 ) ) ;
#745 = DIRECTION ( 'NONE',  ( -0.000000000000000000, 1.000000000000000000, -0.000000000000000000 ) ) ;
#746 = PLANE ( 'NONE',  #37 ) ;
#747 = COORDINATED_UNIVERSAL_TIME_OFFSET ( 8, 0, .AHEAD. ) ;
#748 = ORIENTED_EDGE ( 'NONE', *, *, #830, .T. ) ;
#749 = LINE ( 'NONE', #431, #196 ) ;
#750 = DIRECTION ( 'NONE',  ( -0.000000000000000000, 0.000000000000000000, 1.000000000000000000 ) ) ;
#751 = DIRECTION ( 'NONE',  ( 0.000000000000000000, 0.000000000000000000, -1.000000000000000000 ) ) ;
#752 = SHAPE_DEFINITION_REPRESENTATION ( #834, #633 ) ;
#753 = EDGE_CURVE ( 'NONE', #68, #440, #539, .T. ) ;
#754 = CARTESIAN_POINT ( 'NONE',  ( -37.99999999999999289, 4.000000000000000000, -2.750000000000002665 ) ) ;
#755 = DIRECTION ( 'NONE',  ( 0.000000000000000000, 0.000000000000000000, -1.000000000000000000 ) ) ;
#756 = VECTOR ( 'NONE', #745, 1000.000000000000000 ) ;
#757 = CARTESIAN_POINT ( 'NONE',  ( -93.00000000000001421, 0.000000000000000000, 10.00000000000000000 ) ) ;
#758 = PLANE ( 'NONE',  #685 ) ;
#759 = APPROVAL_PERSON_ORGANIZATION ( #714, #646, #72 ) ;
#760 = VERTEX_POINT ( 'NONE', #246 ) ;
#761 = ORIENTED_EDGE ( 'NONE', *, *, #512, .F. ) ;
#762 = ADVANCED_FACE ( 'NONE', ( #287 ), #292, .F. ) ;
#763 = APPROVAL ( #525, '未指定' ) ;
#764 = CIRCLE ( 'NONE', #568, 2.750000000000001776 ) ;
#765 = ORIENTED_EDGE ( 'NONE', *, *, #502, .T. ) ;
#766 = EDGE_LOOP ( 'NONE', ( #78, #220, #700, #585 ) ) ;
#767 = ADVANCED_FACE ( 'NONE', ( #475 ), #368, .T. ) ;
#768 = VECTOR ( 'NONE', #198, 1000.000000000000000 ) ;
#769 = ORIENTED_EDGE ( 'NONE', *, *, #462, .F. ) ;
#770 = DIRECTION ( 'NONE',  ( -0.000000000000000000, -0.000000000000000000, -1.000000000000000000 ) ) ;
#771 = APPROVAL ( #317, '未指定' ) ;
#772 = ORIENTED_EDGE ( 'NONE', *, *, #87, .T. ) ;
#773 = VECTOR ( 'NONE', #722, 1000.000000000000000 ) ;
#774 = PLANE ( 'NONE',  #482 ) ;
#775 = ADVANCED_FACE ( 'NONE', ( #801, #150 ), #359, .F. ) ;
#776 = EDGE_LOOP ( 'NONE', ( #119, #133 ) ) ;
#777 = DIRECTION ( 'NONE',  ( -0.000000000000000000, -0.000000000000000000, 1.000000000000000000 ) ) ;
#778 = AXIS2_PLACEMENT_3D ( 'NONE', #707, #456, #139 ) ;
#779 = CARTESIAN_POINT ( 'NONE',  ( -72.00000000000000000, 4.000000000000000000, -1.267080867070670108E-16 ) ) ;
#780 = CARTESIAN_POINT ( 'NONE',  ( 88.50000000000001421, 0.000000000000000000, -6.500000000000000000 ) ) ;
#781 = PERSON_AND_ORGANIZATION ( #131, #581 ) ;
#782 = EDGE_LOOP ( 'NONE', ( #409, #128, #838, #589 ) ) ;
#783 = EDGE_CURVE ( 'NONE', #210, #357, #411, .T. ) ;
#784 = DIRECTION ( 'NONE',  ( 0.000000000000000000, 0.000000000000000000, -1.000000000000000000 ) ) ;
#785 = EDGE_CURVE ( 'NONE', #687, #379, #550, .T. ) ;
#786 = APPLICATION_PROTOCOL_DEFINITION ( 'international standard', 'config_control_design', 1994, #135 ) ;
#787 = ORIENTED_EDGE ( 'NONE', *, *, #413, .T. ) ;
#788 = DIRECTION ( 'NONE',  ( 0.000000000000000000, -1.000000000000000000, 0.000000000000000000 ) ) ;
#789 = EDGE_CURVE ( 'NONE', #201, #554, #238, .T. ) ;
#790 = DIRECTION ( 'NONE',  ( 0.000000000000000000, -1.000000000000000000, 0.000000000000000000 ) ) ;
#791 = EDGE_LOOP ( 'NONE', ( #826, #197, #537, #723 ) ) ;
#792 = CARTESIAN_POINT ( 'NONE',  ( -37.99999999999999289, 4.000000000000000000, -7.863116217959562905E-16 ) ) ;
#793 = DIRECTION ( 'NONE',  ( 0.000000000000000000, 0.000000000000000000, -1.000000000000000000 ) ) ;
#794 = ORIENTED_EDGE ( 'NONE', *, *, #66, .F. ) ;
#795 = ADVANCED_FACE ( 'NONE', ( #426 ), #9, .T. ) ;
#796 = CARTESIAN_POINT ( 'NONE',  ( 88.50000000000001421, 0.000000000000000000, 6.500000000000000000 ) ) ;
#797 = CARTESIAN_POINT ( 'NONE',  ( 88.50000000000001421, 0.000000000000000000, 6.500000000000000000 ) ) ;
#798 =( NAMED_UNIT ( * ) SI_UNIT ( $, .STERADIAN. ) SOLID_ANGLE_UNIT ( ) );
#799 = EDGE_LOOP ( 'NONE', ( #678, #716, #491, #301 ) ) ;
#800 = DIRECTION ( 'NONE',  ( -0.000000000000000000, -1.000000000000000000, -0.000000000000000000 ) ) ;
#801 = FACE_BOUND ( 'NONE', #243, .T. ) ;
#802 = CARTESIAN_POINT ( 'NONE',  ( 88.50000000000001421, 4.000000000000000000, 6.500000000000000000 ) ) ;
#803 = PERSON_AND_ORGANIZATION_ROLE ( 'design_supplier' ) ;
#804 = VECTOR ( 'NONE', #174, 1000.000000000000000 ) ;
#805 = EDGE_LOOP ( 'NONE', ( #255, #389, #214, #602 ) ) ;
#806 = CARTESIAN_POINT ( 'NONE',  ( 38.00000000000000711, 4.000000000000000000, 9.107465338243180839E-16 ) ) ;
#807 = CARTESIAN_POINT ( 'NONE',  ( 88.50000000000001421, 4.000000000000000000, -6.500000000000000000 ) ) ;
#808 = CARTESIAN_POINT ( 'NONE',  ( 72.00000000000000000, 9.500000000000000000, 2.750000000000009326 ) ) ;
#809 = ORIENTED_EDGE ( 'NONE', *, *, #753, .F. ) ;
#810 = DIRECTION ( 'NONE',  ( -1.000000000000000000, -0.000000000000000000, -0.000000000000000000 ) ) ;
#811 = DIRECTION ( 'NONE',  ( 1.000000000000000000, 0.000000000000000000, 0.000000000000000000 ) ) ;
#812 = DIRECTION ( 'NONE',  ( -0.000000000000000000, -1.000000000000000000, -0.000000000000000000 ) ) ;
#813 = ADVANCED_FACE ( 'NONE', ( #278 ), #89, .T. ) ;
#814 = ORIENTED_EDGE ( 'NONE', *, *, #519, .F. ) ;
#815 = DIRECTION ( 'NONE',  ( 0.000000000000000000, -0.000000000000000000, -1.000000000000000000 ) ) ;
#816 = CIRCLE ( 'NONE', #514, 2.750000000000001776 ) ;
#817 = CYLINDRICAL_SURFACE ( 'NONE', #392, 2.750000000000001776 ) ;
#818 = AXIS2_PLACEMENT_3D ( 'NONE', #134, #143, #340 ) ;
#819 = CARTESIAN_POINT ( 'NONE',  ( -72.00000000000000000, 9.500000000000000000, -1.267080867070670108E-16 ) ) ;
#820 = EDGE_LOOP ( 'NONE', ( #640, #20 ) ) ;
#821 = DIRECTION ( 'NONE',  ( 0.000000000000000000, -1.000000000000000000, 0.000000000000000000 ) ) ;
#822 = ORIENTED_EDGE ( 'NONE', *, *, #67, .T. ) ;
#823 = EDGE_CURVE ( 'NONE', #405, #59, #663, .T. ) ;
#824 = CC_DESIGN_APPROVAL ( #763, ( #661 ) ) ;
#825 = ORIENTED_EDGE ( 'NONE', *, *, #149, .F. ) ;
#826 = ORIENTED_EDGE ( 'NONE', *, *, #191, .T. ) ;
#827 = LINE ( 'NONE', #105, #158 ) ;
#828 = AXIS2_PLACEMENT_3D ( 'NONE', #427, #493, #356 ) ;
#829 = CARTESIAN_POINT ( 'NONE',  ( 93.00000000000002842, 13.00000000000000000, -10.00000000000000000 ) ) ;
#830 = EDGE_CURVE ( 'NONE', #123, #251, #226, .T. ) ;
#831 = CC_DESIGN_SECURITY_CLASSIFICATION ( #635, ( #661 ) ) ;
#832 = ORIENTED_EDGE ( 'NONE', *, *, #258, .T. ) ;
#833 = DIRECTION ( 'NONE',  ( 0.000000000000000000, 0.000000000000000000, 1.000000000000000000 ) ) ;
#834 = PRODUCT_DEFINITION_SHAPE ( 'NONE', 'NONE',  #50 ) ;
#835 = AXIS2_PLACEMENT_3D ( 'NONE', #144, #656, #408 ) ;
#836 = CARTESIAN_POINT ( 'NONE',  ( 38.00000000000000711, 9.500000000000000000, 9.107465338243180839E-16 ) ) ;
#837 = APPLICATION_CONTEXT ( 'configuration controlled 3d designs of mechanical parts and assemblies' ) ;
#838 = ORIENTED_EDGE ( 'NONE', *, *, #164, .T. ) ;
#839 = AXIS2_PLACEMENT_3D ( 'NONE', #302, #739, #160 ) ;
#840 = VECTOR ( 'NONE', #270, 1000.000000000000114 ) ;
#841 = CARTESIAN_POINT ( 'NONE',  ( -37.99999999999999289, 9.500000000000000000, -7.863116217959562905E-16 ) ) ;
ENDSEC;
END-ISO-10303-21;
